<?xml version="1.0" standalone="no"?>
<!DOCTYPE svg PUBLIC "-//W3C//DTD SVG 20010904//EN"
 "http://www.w3.org/TR/2001/REC-SVG-20010904/DTD/svg10.dtd">
<svg version="1.0" xmlns="http://www.w3.org/2000/svg"
 width="1068.000000pt" height="306.000000pt" viewBox="0 0 1068.000000 306.000000"
 preserveAspectRatio="xMidYMid meet">

<g transform="translate(0.000000,306.000000) scale(0.100000,-0.100000)"
fill="#000000" stroke="none">
<path d="M1965 2943 c-147 -31 -261 -92 -376 -201 -173 -163 -280 -372 -416
-807 -80 -258 -158 -460 -226 -583 -56 -103 -148 -211 -199 -234 -18 -9 -76
-18 -129 -22 -167 -11 -297 -53 -418 -135 -106 -72 -117 -115 -54 -205 55 -79
89 -91 156 -56 122 66 298 64 501 -4 43 -15 205 -77 360 -138 584 -230 742
-263 927 -196 82 30 183 101 236 165 68 81 133 185 133 212 0 20 10 32 40 49
22 12 55 36 73 52 l34 29 30 -43 c96 -137 340 -124 526 28 l54 44 34 -50 c23
-34 52 -61 89 -82 50 -28 63 -31 140 -31 75 0 93 4 150 31 36 17 85 47 109 67
l45 35 27 -42 c63 -100 226 -123 384 -56 22 10 70 40 107 68 l67 50 26 -38
c106 -154 362 -150 562 9 l51 40 30 -52 29 -52 -34 -11 c-145 -50 -246 -240
-213 -402 24 -115 84 -192 190 -241 48 -23 68 -26 160 -26 162 0 277 46 423
169 88 73 215 251 273 382 48 109 494 1349 494 1375 0 31 -31 66 -67 75 -15 4
-47 1 -72 -6 -125 -35 -154 -41 -261 -51 -63 -6 -124 -17 -136 -24 -29 -19
-84 -127 -84 -167 0 -37 33 -78 63 -78 9 0 17 -2 17 -4 0 -2 -22 -67 -50 -145
-59 -168 -105 -271 -165 -366 -47 -75 -120 -153 -132 -141 -13 13 25 133 162
514 74 205 135 379 135 387 0 27 -23 63 -47 74 -34 16 -62 14 -129 -9 -32 -12
-100 -26 -150 -32 l-92 -12 -25 29 c-22 26 -32 30 -96 33 -39 2 -71 6 -71 7 0
2 34 102 76 222 42 120 77 231 76 247 -1 38 -29 65 -75 73 -29 4 -49 -1 -104
-30 -82 -42 -149 -61 -303 -82 -161 -22 -164 -24 -195 -104 -14 -36 -25 -80
-25 -97 0 -42 36 -74 82 -74 l36 0 -26 -80 -26 -80 -71 -2 c-38 -1 -89 -1
-113 1 -24 1 -71 -7 -105 -18 -62 -20 -151 -35 -282 -47 -38 -3 -81 -13 -93
-21 -13 -8 -39 -48 -58 -88 -34 -71 -35 -74 -20 -109 11 -27 23 -38 46 -42 16
-4 30 -10 30 -14 0 -5 -22 -70 -50 -144 -86 -237 -207 -452 -272 -487 -20 -11
-20 -9 -14 36 4 26 70 226 147 444 76 219 139 405 139 414 0 9 -11 28 -24 44
-21 24 -31 28 -73 27 -26 -1 -80 -11 -119 -22 -39 -11 -125 -26 -190 -32 -66
-6 -129 -18 -140 -25 -12 -8 -36 -38 -53 -67 -34 -60 -38 -59 -16 2 21 59 19
93 -7 118 -36 32 -69 36 -149 13 -41 -11 -106 -23 -144 -27 -65 -6 -74 -4
-108 19 -44 30 -152 52 -210 43 -273 -42 -517 -310 -661 -725 -92 -265 -85
-471 18 -588 l41 -46 -80 6 c-44 4 -145 24 -225 46 -255 67 -645 175 -650 179
-3 2 9 13 25 25 56 40 167 152 210 212 77 108 121 215 245 595 l123 375 17
-71 c47 -201 194 -298 393 -260 178 34 309 152 374 337 38 108 44 264 14 374
-28 100 -64 166 -122 224 -116 118 -298 164 -484 124z m260 -75 c102 -25 201
-109 248 -211 90 -191 48 -448 -96 -592 -73 -73 -149 -107 -248 -113 -70 -4
-85 -2 -133 22 -93 46 -139 126 -139 246 -1 102 35 181 110 250 59 54 81 60
107 31 17 -19 17 -21 -17 -51 -76 -66 -89 -188 -26 -243 29 -27 37 -29 84 -24
64 7 104 26 154 76 116 116 136 335 39 429 -90 89 -271 51 -394 -81 -117 -126
-161 -225 -335 -753 -138 -417 -166 -479 -270 -610 -64 -80 -184 -178 -279
-227 l-68 -35 146 -37 c81 -20 284 -74 452 -121 168 -46 341 -92 384 -100 143
-29 296 -5 350 55 16 18 15 19 -26 25 -232 35 -259 339 -67 745 134 283 327
476 509 509 95 17 186 -9 229 -65 19 -26 22 -26 32 -10 7 11 22 17 48 17 49 0
143 17 204 37 32 10 52 12 59 5 6 -6 -42 -157 -137 -433 -81 -233 -149 -444
-152 -470 -5 -39 -2 -50 17 -69 63 -63 186 36 294 238 51 95 198 495 194 526
-3 18 -11 21 -56 24 -29 2 -52 6 -50 10 2 4 16 31 31 60 24 46 31 52 60 52 68
1 251 30 317 52 44 14 73 18 79 12 5 -5 -42 -151 -115 -359 -142 -400 -164
-472 -164 -534 0 -82 54 -104 136 -56 52 30 133 147 198 286 58 121 168 426
164 453 -2 17 -11 22 -50 24 -27 2 -48 7 -48 13 0 5 11 32 25 59 22 44 29 50
58 50 67 1 252 30 319 51 41 13 73 18 78 13 5 -5 -41 -152 -116 -364 -199
-567 -207 -597 -164 -620 57 -30 162 64 242 217 38 71 238 614 238 646 0 4
-36 7 -81 7 -90 0 -84 -8 -54 80 l12 35 86 3 86 3 41 124 c58 179 56 189 -41
178 -51 -6 -52 -6 -46 19 4 13 13 40 21 60 l15 35 98 13 c139 18 273 53 343
91 44 23 64 29 72 21 7 -7 -15 -84 -81 -272 -50 -143 -91 -263 -91 -265 0 -2
46 -6 103 -7 l102 -3 -1 -32 c-2 -31 0 -33 30 -33 66 1 251 30 318 51 41 13
73 18 78 13 5 -5 -44 -154 -121 -369 -146 -403 -169 -479 -169 -547 0 -78 42
-98 120 -58 58 30 132 128 205 275 69 141 191 475 182 500 -5 10 -20 15 -52
15 -25 0 -45 4 -45 10 0 5 12 32 28 60 23 42 31 50 57 50 68 1 244 30 308 51
45 15 71 19 78 12 12 -12 -433 -1248 -496 -1375 -155 -313 -407 -504 -640
-485 -158 12 -254 111 -255 262 0 215 220 369 327 228 88 -115 -53 -332 -176
-269 -35 19 -39 10 -16 -34 19 -37 62 -60 113 -60 121 0 228 94 324 285 36 72
128 295 164 400 l14 40 -22 -30 c-44 -62 -158 -164 -215 -191 -46 -23 -72 -29
-123 -29 -123 0 -200 77 -216 216 l-6 55 -56 -58 c-112 -118 -247 -188 -362
-188 -127 0 -210 71 -227 196 l-6 45 -30 -38 c-125 -154 -293 -236 -418 -203
-83 22 -119 77 -119 182 l-1 63 -21 -30 c-46 -65 -159 -167 -211 -190 -174
-80 -318 -3 -336 179 l-6 59 -50 -63 c-224 -280 -580 -272 -552 13 l4 47 -34
-50 c-72 -107 -207 -210 -274 -210 -22 0 -22 -1 6 -30 l28 -29 -34 -58 c-50
-84 -172 -204 -244 -240 -187 -94 -293 -74 -944 182 -385 150 -467 174 -617
182 -122 6 -188 -4 -265 -43 l-46 -23 -34 46 -33 46 40 35 c93 81 266 142 403
142 94 0 136 11 198 54 145 99 276 356 418 816 142 460 269 697 450 840 171
135 360 183 540 138z m28 -228 c96 -75 37 -303 -95 -371 -46 -23 -62 -24 -83
-2 -28 27 -13 78 40 134 59 64 61 101 8 153 -35 34 -54 41 -96 38 -28 -3 -10
16 41 43 62 32 148 34 185 5z m1115 -842 c19 -9 35 -18 38 -20 6 -7 -119 -346
-151 -408 -40 -79 -97 -159 -145 -205 l-43 -40 6 35 c3 19 58 189 123 377 110
318 119 339 129 310 6 -21 22 -38 43 -49z m1209 48 c6 -5 -158 -458 -184 -511
-35 -68 -122 -190 -130 -181 -3 3 50 163 117 356 l123 350 36 -6 c20 -4 37 -7
38 -8z m872 -1113 c-22 -57 -100 -200 -128 -233 l-30 -35 14 40 c18 52 18 91
0 150 -8 27 -13 50 -12 50 1 1 31 9 67 19 36 9 72 21 80 26 21 13 21 13 9 -17z"/>
<path d="M4891 1573 c-134 -382 -151 -455 -116 -493 67 -74 254 60 352 253 39
78 184 479 181 501 -3 18 -11 21 -55 24 -57 3 -60 7 -38 36 8 11 15 23 15 28
0 4 -48 8 -107 8 l-108 0 -124 -357z m259 247 c15 -16 37 -30 49 -30 12 0 21
-3 21 -7 0 -26 -149 -404 -179 -453 -54 -89 -168 -200 -207 -200 -17 0 12 101
117 398 l113 322 29 0 c19 0 38 -10 57 -30z"/>
<path d="M2739 1890 c-79 -41 -170 -174 -239 -348 -57 -141 -90 -278 -90 -369
0 -66 3 -77 26 -100 92 -92 270 138 399 517 57 168 68 252 35 293 -26 33 -76
36 -131 7z m77 -98 c-14 -107 -120 -385 -192 -504 -39 -64 -119 -158 -135
-158 -15 0 -10 92 10 175 48 197 134 378 226 473 34 34 69 62 79 62 16 0 18
-6 12 -48z"/>
<path d="M7436 2935 c-283 -46 -487 -141 -663 -308 -278 -264 -347 -669 -152
-890 68 -78 194 -114 291 -84 l47 15 -16 -42 c-142 -363 -186 -457 -251 -528
-50 -55 -119 -88 -200 -94 -103 -9 -118 -17 -143 -83 -29 -74 -29 -115 -1
-144 22 -22 25 -22 505 -31 718 -13 715 -13 830 17 298 79 586 321 765 642 19
33 31 51 27 40 -24 -73 -45 -202 -45 -285 0 -155 35 -257 116 -336 64 -62 137
-88 249 -88 105 0 182 23 286 84 74 44 201 158 243 219 16 22 32 39 36 36 4
-3 11 -21 14 -40 18 -93 88 -192 170 -240 52 -30 149 -55 212 -55 138 1 296
64 392 158 33 31 63 64 68 73 5 9 38 31 73 50 108 57 262 223 277 298 11 54
-2 79 -56 106 -84 43 -116 35 -166 -41 -20 -30 -39 -54 -44 -54 -4 0 -10 18
-14 40 -3 22 -26 78 -51 126 l-44 87 41 46 c185 208 117 475 -125 498 -230 21
-407 -179 -407 -460 0 -86 -1 -90 -37 -142 -31 -44 -46 -57 -83 -68 -25 -7
-46 -13 -47 -13 -1 1 7 37 18 81 87 351 -32 585 -304 602 -102 7 -180 -12
-297 -69 -71 -34 -102 -58 -186 -142 -86 -87 -119 -128 -190 -243 -7 -10 1 33
17 94 74 291 60 519 -48 743 -39 81 -59 108 -137 186 -80 80 -105 98 -196 143
-162 78 -273 102 -500 107 -130 2 -211 -1 -274 -11z m423 -65 c123 -16 201
-39 309 -92 176 -84 299 -226 358 -414 157 -495 -176 -1211 -679 -1462 -45
-23 -122 -53 -172 -67 -111 -33 -208 -36 -590 -17 -172 9 -345 11 -476 7 -114
-4 -209 -3 -212 1 -3 5 3 29 12 54 l17 45 67 7 c115 11 164 33 237 107 38 39
80 95 102 136 20 39 132 311 248 604 115 294 224 562 241 597 39 82 122 172
191 207 62 31 146 53 240 62 67 6 68 6 78 -20 16 -42 12 -50 -29 -69 -58 -25
-135 -115 -180 -210 -22 -44 -132 -335 -246 -646 -117 -320 -217 -580 -232
-600 -31 -43 -64 -73 -121 -110 l-42 -28 52 -6 c198 -22 345 -27 414 -12 301
62 615 449 736 906 38 147 49 334 24 450 -47 223 -192 372 -421 435 -82 22
-332 31 -431 16 -164 -27 -291 -88 -390 -186 -214 -213 -183 -551 57 -615 46
-13 49 -29 18 -95 -45 -95 -144 -154 -236 -140 -74 11 -133 59 -177 146 -33
65 -39 88 -43 161 -22 345 266 684 684 803 175 50 412 68 592 45z m-329 -200
c-30 -11 -79 -37 -108 -57 -103 -70 -157 -161 -268 -450 -65 -169 -64 -168
-140 -134 -187 85 -158 375 53 531 119 87 251 128 423 129 l95 0 -55 -19z
m504 -163 c50 -61 93 -157 107 -240 15 -92 6 -265 -20 -372 -106 -436 -435
-849 -703 -883 -75 -10 -238 -3 -238 9 0 6 11 25 25 44 15 19 111 267 235 606
116 316 226 606 246 646 47 93 94 148 155 178 52 27 69 49 69 90 l0 26 44 -31
c25 -16 60 -49 80 -73z m1321 -474 c57 -29 94 -69 124 -133 23 -50 26 -66 25
-170 0 -123 -21 -224 -70 -344 -23 -57 -23 -62 -7 -73 27 -20 42 -16 90 27 41
36 93 59 133 60 8 0 40 36 69 80 l55 80 -3 93 c-6 235 128 408 316 407 81 -1
165 -64 179 -136 19 -100 -49 -232 -158 -310 l-28 -19 36 -45 c20 -25 53 -78
72 -119 29 -60 36 -89 40 -152 3 -44 8 -79 12 -79 33 0 167 126 182 172 6 17
78 -15 78 -34 0 -24 -102 -148 -158 -194 -31 -25 -82 -59 -113 -74 -37 -19
-65 -42 -79 -65 -51 -82 -191 -165 -313 -185 -218 -37 -385 80 -404 285 l-6
64 -44 7 c-24 3 -45 5 -47 3 -177 -254 -349 -372 -541 -373 -130 0 -211 50
-264 164 -20 45 -26 74 -29 157 -15 385 273 827 599 918 76 21 202 15 254 -12z"/>
<path d="M10067 1929 c-28 -16 -47 -72 -47 -136 0 -77 10 -92 43 -70 91 59
127 218 50 217 -16 0 -36 -5 -46 -11z"/>
<path d="M9134 1891 c-77 -44 -139 -120 -199 -246 -99 -201 -140 -417 -101
-520 20 -52 39 -65 94 -65 63 0 142 60 218 166 l44 62 -16 38 c-9 22 -19 76
-22 121 l-5 82 29 12 c16 6 55 13 86 16 l57 6 17 74 c35 159 -15 283 -115 283
-21 0 -57 -12 -87 -29z m120 -63 c21 -31 28 -94 19 -148 l-8 -45 -70 -18 c-97
-24 -115 -46 -115 -140 0 -40 6 -97 14 -127 l14 -55 -40 -53 c-45 -58 -112
-112 -140 -112 -55 0 -50 168 12 350 30 86 102 225 142 274 35 43 112 96 140
96 10 0 24 -10 32 -22z"/>
<path d="M9794 1402 l-31 -37 24 -44 c12 -24 23 -54 23 -65 0 -47 -24 -103
-60 -138 -30 -30 -45 -38 -74 -38 -21 0 -46 5 -58 11 -25 13 -51 74 -43 100 4
10 2 19 -2 19 -39 0 -45 -94 -10 -155 43 -78 169 -110 257 -65 114 58 134 275
38 417 -13 18 -25 33 -28 33 -3 0 -19 -17 -36 -38z"/>
</g>
</svg>
