<?xml version="1.0" standalone="no"?>
<!DOCTYPE svg PUBLIC "-//W3C//DTD SVG 20010904//EN"
 "http://www.w3.org/TR/2001/REC-SVG-20010904/DTD/svg10.dtd">
<svg version="1.0" xmlns="http://www.w3.org/2000/svg"
 width="1833.000000pt" height="376.000000pt" viewBox="0 0 1833.000000 376.000000"
 preserveAspectRatio="xMidYMid meet">

<g transform="translate(0.000000,376.000000) scale(0.100000,-0.100000)"
fill="#000000" stroke="none">
<path d="M4815 3660 c-16 -6 -48 -12 -70 -14 -22 -2 -94 -14 -160 -26 -66 -12
-160 -28 -210 -36 -49 -8 -107 -19 -130 -24 -22 -5 -76 -14 -120 -20 -44 -6
-102 -16 -130 -22 -27 -5 -75 -13 -105 -18 -30 -5 -109 -18 -175 -30 -66 -12
-156 -28 -200 -35 -242 -41 -327 -55 -390 -65 -84 -14 -212 -36 -315 -55 -41
-8 -120 -21 -175 -30 -55 -10 -134 -23 -175 -30 -41 -8 -120 -21 -175 -30 -55
-9 -145 -25 -200 -35 -55 -11 -134 -24 -175 -29 -41 -6 -111 -17 -155 -25 -44
-8 -134 -24 -200 -36 -66 -12 -142 -25 -170 -30 -27 -5 -84 -14 -125 -20 -41
-6 -109 -17 -150 -25 -41 -8 -120 -21 -175 -30 -120 -20 -242 -42 -310 -55
-27 -6 -84 -14 -125 -20 -111 -14 -171 -35 -250 -88 -79 -53 -160 -159 -181
-234 -17 -66 -14 -191 9 -318 11 -63 30 -173 42 -245 12 -71 35 -200 51 -285
16 -86 29 -166 29 -178 0 -13 7 -56 15 -97 9 -41 19 -103 24 -137 5 -35 20
-126 34 -203 14 -77 32 -187 42 -245 9 -58 20 -127 25 -155 5 -27 16 -93 25
-145 35 -205 69 -286 156 -371 87 -84 251 -140 353 -120 28 6 96 17 151 26 55
10 134 23 175 30 41 8 113 21 160 29 47 8 108 18 135 22 28 3 104 16 170 29
66 13 143 26 170 29 28 3 100 15 160 26 61 11 148 27 195 35 47 7 128 21 180
30 52 9 115 20 140 25 25 5 104 19 175 30 123 19 191 31 380 65 44 8 148 26
230 39 83 14 191 32 240 41 50 9 135 22 190 30 55 9 134 22 175 30 76 15 282
50 605 105 99 17 207 35 239 41 33 6 79 13 102 15 24 2 99 15 168 29 69 14
138 25 152 25 53 0 210 43 266 72 68 36 152 123 178 184 l19 44 53 -28 c57
-29 52 -29 483 -24 66 1 350 -1 630 -4 554 -6 595 -3 654 45 l33 27 47 -22
c62 -30 181 -62 256 -70 63 -7 183 12 271 42 40 13 48 13 103 -6 49 -16 86
-20 198 -20 157 0 202 9 255 51 l38 30 27 -26 c52 -48 100 -55 412 -55 209 0
300 4 337 14 44 12 60 12 105 0 74 -19 310 -19 375 1 27 8 64 28 81 45 l31 30
43 -24 c24 -14 85 -37 134 -52 126 -38 254 -38 378 0 108 32 147 52 229 114
l64 48 48 -43 c97 -88 271 -148 426 -147 104 1 237 34 318 79 l43 24 44 -34
c28 -21 65 -38 102 -45 79 -17 304 -8 363 14 41 16 46 16 85 -1 34 -15 81 -18
335 -21 329 -4 382 2 442 49 l38 30 27 -26 c48 -44 81 -48 383 -52 317 -4 377
2 440 48 60 43 73 78 78 197 5 116 22 139 22 29 0 -107 21 -167 75 -215 64
-56 104 -62 419 -62 295 1 341 7 399 52 l37 29 38 -29 c20 -16 57 -34 82 -40
71 -17 583 -15 650 3 47 12 62 12 110 0 42 -11 142 -14 439 -14 344 0 393 2
474 19 107 23 224 78 281 130 l41 38 60 -49 c322 -267 833 -167 1019 199 70
139 89 334 47 491 -66 248 -221 395 -491 467 -182 49 -429 -9 -577 -136 l-58
-49 -35 33 c-50 49 -132 91 -235 122 -86 26 -99 27 -320 28 -126 1 -241 0
-255 -1 -14 -2 -87 0 -163 3 -134 6 -250 -6 -263 -27 -2 -4 -21 0 -42 9 -30
14 -69 17 -207 17 -166 0 -172 -1 -223 -27 l-53 -28 -36 20 c-62 33 -136 42
-317 38 -162 -3 -174 -5 -230 -31 -53 -24 -61 -26 -75 -12 -9 8 -44 21 -76 30
-50 12 -138 14 -550 12 l-491 -2 -53 -28 c-50 -25 -55 -26 -77 -12 -49 32
-134 45 -294 45 -248 0 -325 -31 -366 -145 -19 -54 -22 -57 -32 -38 -22 40
-149 124 -230 151 -73 25 -90 26 -337 30 -298 4 -350 -2 -410 -52 l-38 -33
-41 23 c-81 45 -212 77 -321 78 -87 0 -113 -4 -203 -33 -102 -33 -196 -85
-240 -134 l-24 -25 -66 50 c-86 64 -121 82 -229 114 -162 49 -355 31 -502 -47
l-54 -29 -29 29 c-17 17 -53 35 -87 45 -76 21 -285 22 -365 1 -52 -14 -63 -14
-109 0 -62 18 -286 20 -355 3 -26 -6 -59 -20 -74 -31 -25 -19 -28 -19 -52 -3
-52 33 -134 46 -301 46 -179 0 -245 -12 -302 -56 -19 -14 -42 -42 -49 -61
l-15 -34 -49 35 c-69 50 -116 72 -217 102 -158 48 -337 33 -481 -40 l-48 -24
-34 28 c-19 16 -55 34 -80 40 -30 7 -214 10 -565 8 l-521 -3 -51 -26 -51 -27
-53 27 c-49 24 -66 26 -200 30 -181 4 -240 -10 -298 -69 -51 -53 -61 -96 -62
-287 -1 -87 -4 -144 -6 -128 -2 17 -14 91 -27 165 -14 74 -36 207 -51 295 -14
88 -33 196 -40 240 -8 44 -26 148 -40 230 -14 83 -32 186 -39 230 -8 44 -22
130 -32 190 -41 266 -182 404 -439 429 -27 3 -63 1 -80 -4z m118 -70 c130 -19
241 -100 293 -214 13 -29 31 -95 39 -147 20 -120 58 -344 91 -529 14 -80 30
-172 34 -205 11 -77 76 -465 90 -530 5 -27 23 -131 40 -230 16 -99 38 -233 49
-298 12 -66 21 -141 21 -169 0 -68 -50 -179 -108 -240 -75 -79 -123 -95 -412
-143 -52 -9 -115 -20 -140 -26 -25 -5 -63 -11 -86 -13 -22 -3 -69 -9 -105 -16
-127 -22 -178 -31 -469 -80 -162 -28 -329 -57 -370 -65 -41 -8 -120 -21 -175
-30 -55 -8 -140 -21 -190 -30 -49 -9 -157 -27 -240 -41 -82 -13 -186 -31 -230
-39 -190 -34 -259 -46 -410 -71 -88 -15 -178 -30 -200 -34 -22 -4 -74 -13
-115 -19 -41 -7 -109 -18 -150 -26 -41 -8 -109 -19 -150 -26 -41 -6 -91 -15
-110 -20 -19 -4 -71 -13 -115 -19 -44 -6 -114 -17 -155 -25 -41 -8 -131 -24
-200 -35 -69 -11 -161 -27 -205 -35 -458 -82 -448 -81 -560 -40 -162 59 -247
207 -271 470 -1 17 -7 50 -13 75 -5 25 -17 90 -26 145 -8 55 -27 165 -41 245
-14 80 -32 183 -39 230 -21 136 -54 330 -84 495 -5 28 -19 109 -31 180 -12 72
-28 166 -35 211 -44 250 -40 317 24 410 23 34 54 73 69 87 41 40 155 95 209
102 49 6 171 26 303 50 41 7 120 20 175 30 55 9 134 22 175 30 41 8 109 19
150 25 41 6 98 15 125 20 28 5 104 18 170 30 66 12 156 28 200 36 44 8 114 19
155 25 41 5 120 18 175 29 55 10 145 26 200 35 55 9 134 22 175 30 41 7 120
20 175 30 55 9 134 22 175 30 110 21 239 43 285 50 22 3 65 10 95 15 30 5 96
16 145 24 131 22 244 42 380 66 66 12 145 25 175 30 30 5 78 13 105 18 28 6
86 16 130 22 44 6 112 18 150 26 103 20 424 75 470 80 22 2 54 8 70 13 40 12
39 12 118 1z m3057 -1301 c115 -31 256 -121 297 -190 10 -16 20 -29 23 -29 3
0 12 26 18 58 20 91 36 118 84 144 39 20 59 23 205 26 97 2 184 -1 217 -8 65
-13 113 -53 122 -100 l7 -32 29 51 c43 74 69 85 216 89 149 5 200 -2 245 -32
34 -24 35 -24 54 -4 11 11 38 23 59 28 54 13 261 12 308 -1 49 -13 94 -57 102
-99 7 -31 7 -31 28 -12 37 34 119 80 182 101 142 47 246 48 397 1 75 -23 204
-106 248 -159 l29 -35 57 56 c73 71 138 110 233 141 105 34 189 41 280 23 102
-19 177 -49 243 -96 59 -41 60 -41 71 2 3 15 23 40 43 55 l36 28 281 0 c263 0
285 -1 351 -22 123 -39 220 -129 261 -241 10 -26 20 -51 24 -55 4 -5 15 24 25
65 41 168 53 196 97 226 l42 27 205 0 c179 0 210 -2 239 -18 36 -20 72 -70 72
-102 0 -13 10 -2 29 31 55 95 17 89 580 91 329 2 508 -1 535 -8 46 -12 92 -57
105 -103 6 -20 10 -24 10 -11 2 32 38 83 73 102 27 14 64 18 214 21 115 3 195
0 222 -8 61 -16 100 -55 117 -115 10 -39 13 -44 14 -22 1 43 29 95 65 120 28
20 46 22 164 26 162 4 214 -3 249 -34 l28 -23 27 23 c37 32 91 38 250 31 73
-3 144 -4 158 -3 14 1 126 2 250 2 183 0 237 -3 288 -17 100 -28 182 -74 248
-139 l61 -60 64 64 c77 77 173 129 292 157 98 24 160 25 247 5 247 -57 407
-210 459 -437 26 -112 26 -184 1 -293 -22 -96 -45 -145 -101 -221 -77 -105
-196 -179 -340 -214 -106 -25 -162 -25 -268 0 -115 28 -212 81 -290 158 l-64
63 -66 -64 c-76 -74 -160 -117 -271 -141 -64 -14 -136 -16 -482 -14 -405 3
-406 3 -437 26 l-31 23 -31 -23 c-30 -23 -36 -23 -330 -26 -184 -1 -315 1
-338 8 -43 11 -101 64 -101 92 0 13 -8 18 -30 18 -22 0 -30 -5 -30 -18 0 -28
-58 -81 -100 -92 -23 -6 -155 -9 -333 -8 -281 3 -297 4 -323 24 -62 46 -69 65
-72 200 l-4 124 -79 0 -79 0 0 -122 c0 -139 -12 -172 -72 -205 -30 -16 -64
-18 -348 -18 -296 0 -317 1 -348 20 -18 11 -40 36 -50 57 -14 30 -23 38 -44
38 -18 0 -28 -5 -28 -15 0 -26 -61 -84 -99 -95 -49 -13 -584 -13 -633 0 -21 6
-50 21 -65 34 l-27 24 -31 -23 c-16 -13 -48 -28 -70 -34 -52 -14 -258 -14
-310 0 -42 12 -105 67 -105 93 0 24 -13 20 -80 -23 -113 -73 -270 -110 -390
-92 -151 24 -254 73 -351 168 l-56 54 -55 -53 c-212 -205 -553 -228 -783 -53
l-43 33 -6 -33 c-9 -47 -63 -92 -121 -100 -25 -4 -106 -6 -180 -3 -119 3 -137
6 -164 26 l-30 22 -38 -23 c-37 -21 -48 -22 -331 -25 -180 -1 -308 1 -332 8
-39 11 -100 68 -100 95 0 10 -10 15 -29 15 -22 0 -30 -6 -35 -23 -8 -34 -59
-77 -102 -88 -52 -12 -271 -11 -313 1 -19 5 -44 19 -57 31 -21 19 -24 20 -52
5 -17 -9 -65 -25 -109 -37 -167 -46 -357 -15 -495 83 l-27 19 -15 -30 c-9 -16
-32 -40 -53 -53 -38 -23 -39 -23 -378 -23 -187 0 -351 1 -365 2 -14 1 -87 0
-162 -3 -105 -5 -148 -2 -188 9 -39 12 -59 12 -85 4 -25 -7 -45 -7 -72 1 -27
8 -41 8 -57 -1 -14 -8 -75 -12 -181 -12 -184 0 -210 9 -245 80 -19 39 -20 63
-20 495 0 432 1 456 20 495 31 64 66 79 198 83 196 7 270 -14 301 -86 17 -38
27 -40 36 -9 9 27 62 75 95 85 23 6 227 10 325 5 22 -1 192 0 378 3 334 5 339
5 384 -17 27 -13 53 -36 65 -55 l20 -34 26 19 c43 30 124 68 172 81 119 33
202 32 330 -1z"/>
<path d="M4735 3470 c-88 -16 -377 -66 -845 -146 -80 -13 -156 -27 -170 -29
-14 -3 -79 -14 -145 -25 -192 -31 -645 -108 -704 -119 -29 -6 -97 -18 -150
-26 -53 -8 -172 -28 -266 -45 -93 -16 -253 -43 -355 -60 -178 -29 -327 -55
-380 -65 -14 -3 -50 -8 -80 -11 -30 -3 -58 -8 -62 -10 -3 -2 -152 -29 -330
-59 -178 -30 -416 -70 -530 -90 -115 -19 -219 -35 -233 -35 -37 0 -136 -47
-173 -83 -87 -84 -103 -153 -72 -323 12 -65 23 -132 25 -149 4 -32 30 -185 75
-445 16 -91 38 -219 49 -285 11 -66 33 -199 50 -295 16 -96 35 -209 41 -250 7
-41 23 -133 36 -205 13 -71 27 -152 30 -180 12 -101 50 -167 128 -219 93 -62
101 -62 444 -2 50 9 131 23 180 31 48 8 98 17 112 20 14 3 57 10 95 15 39 5
77 11 85 14 8 4 83 17 165 30 171 28 520 87 675 116 58 10 121 21 140 24 19 3
73 12 120 20 47 8 193 33 325 56 132 22 254 43 270 46 192 34 390 68 430 74
28 4 142 24 255 43 318 56 655 113 765 132 55 9 161 27 235 41 74 13 155 27
180 30 66 8 141 24 175 37 71 27 151 133 162 215 3 21 -6 100 -20 177 -25 135
-66 380 -108 630 -11 66 -26 156 -34 200 -27 148 -116 678 -141 840 -14 88
-30 176 -36 195 -16 56 -59 110 -116 148 -46 31 -61 36 -125 38 -40 1 -117 -6
-172 -16z m209 -176 c9 -8 20 -23 25 -32 5 -9 41 -208 81 -442 39 -234 92
-542 116 -685 24 -143 67 -396 95 -562 50 -291 51 -303 35 -329 -10 -14 -32
-32 -50 -39 -19 -8 -154 -35 -302 -59 -148 -25 -415 -71 -594 -101 -179 -31
-388 -67 -465 -80 -234 -40 -725 -124 -1000 -171 -143 -25 -377 -65 -520 -89
-143 -24 -354 -60 -470 -80 -255 -44 -353 -61 -695 -119 -146 -25 -290 -50
-321 -56 -92 -17 -130 8 -148 100 -6 30 -29 163 -51 295 -112 665 -224 1325
-246 1450 -37 212 -34 232 38 259 24 9 180 39 348 67 168 28 355 59 415 69 61
11 166 29 235 40 69 11 136 23 150 25 54 11 450 79 1135 195 132 22 254 43
270 46 17 3 82 14 145 25 63 11 194 33 290 50 96 17 294 51 440 75 146 25 382
65 525 89 143 24 292 51 330 58 98 20 170 21 189 1z"/>
<path d="M4591 2986 c-68 -11 -126 -26 -128 -32 -4 -13 35 -253 44 -267 5 -8
31 -6 98 7 11 2 52 9 92 16 40 6 76 17 82 23 6 8 3 53 -11 132 -19 111 -30
147 -47 144 -3 -1 -62 -11 -130 -23z"/>
<path d="M4182 2915 c-68 -12 -127 -26 -133 -32 -9 -9 24 -244 38 -266 9 -14
256 24 277 43 11 10 -32 252 -47 266 -9 8 -45 5 -135 -11z"/>
<path d="M3737 2841 c-54 -10 -102 -22 -106 -27 -8 -9 31 -259 42 -270 8 -9
247 29 264 41 12 9 11 29 -7 135 -12 68 -23 127 -26 132 -7 12 -55 8 -167 -11z"/>
<path d="M3321 2769 c-57 -10 -107 -23 -111 -29 -4 -6 4 -68 16 -138 13 -70
23 -128 24 -129 2 -15 254 27 272 45 8 8 6 39 -7 119 -10 59 -22 118 -26 131
-10 27 -24 27 -168 1z"/>
<path d="M2903 2697 l-113 -20 0 -36 c1 -59 36 -232 49 -240 16 -11 243 29
260 45 13 12 12 29 -3 131 -10 65 -23 124 -29 131 -12 15 -25 14 -164 -11z"/>
<path d="M2491 2626 c-63 -11 -116 -26 -118 -33 -5 -15 36 -256 45 -265 4 -4
32 -3 62 2 30 5 88 15 129 22 46 7 75 17 79 27 7 17 -26 229 -39 254 -12 21
-15 21 -158 -7z"/>
<path d="M2085 2558 c-66 -11 -124 -23 -129 -28 -11 -11 32 -262 47 -272 7 -5
21 -6 32 -3 11 2 65 11 120 20 55 9 105 22 111 28 9 9 7 40 -7 122 -19 111
-32 156 -46 154 -5 0 -62 -10 -128 -21z"/>
<path d="M4597 2545 c-103 -18 -191 -35 -194 -39 -9 -8 34 -257 46 -269 7 -7
70 0 202 22 105 18 197 35 205 38 8 3 14 18 14 37 -1 39 -34 219 -44 234 -9
15 -6 16 -229 -23z"/>
<path d="M1663 2486 c-67 -12 -125 -25 -129 -28 -8 -9 34 -260 46 -272 11 -11
251 31 267 47 10 10 9 36 -7 125 -23 136 -28 152 -43 151 -7 -1 -67 -11 -134
-23z"/>
<path d="M4090 2458 c-58 -11 -109 -23 -114 -28 -5 -5 -2 -53 8 -117 26 -162
23 -153 65 -153 51 1 230 35 240 46 8 8 -14 172 -34 252 -7 27 -20 27 -165 0z"/>
<path d="M1227 2411 c-54 -10 -102 -22 -107 -27 -9 -9 30 -258 43 -271 9 -8
257 33 270 46 8 8 -26 242 -39 263 -7 12 -56 8 -167 -11z"/>
<path d="M3778 2404 c-2 -2 -51 -11 -109 -20 -59 -9 -112 -20 -119 -24 -11 -7
-10 -28 4 -117 23 -142 25 -151 41 -157 14 -5 241 30 257 40 4 3 8 20 8 37 -1
41 -35 226 -44 234 -8 8 -33 13 -38 7z"/>
<path d="M806 2339 c-55 -10 -103 -23 -106 -29 -4 -6 2 -59 12 -118 29 -170
20 -156 86 -148 126 15 222 39 222 55 0 27 -38 240 -45 251 -9 14 -54 11 -169
-11z"/>
<path d="M3309 2325 c-3 -2 -47 -11 -98 -19 -52 -9 -96 -18 -98 -20 -8 -8 37
-260 48 -271 8 -8 161 11 247 32 27 6 29 35 7 154 -25 138 -21 129 -64 129
-21 0 -40 -2 -42 -5z"/>
<path d="M2805 2239 c-60 -11 -113 -23 -119 -29 -6 -6 -3 -49 8 -117 23 -140
25 -151 40 -156 17 -7 254 37 266 49 7 8 -16 173 -35 252 -6 26 -12 27 -160 1z"/>
<path d="M2381 2166 c-68 -11 -126 -26 -128 -32 -5 -16 36 -257 46 -267 10
-10 252 30 265 43 6 6 3 54 -8 127 -18 115 -29 154 -44 152 -4 -1 -63 -11
-131 -23z"/>
<path d="M4552 2095 c-167 -29 -307 -56 -312 -61 -11 -11 27 -253 41 -268 9
-10 9 -10 384 53 132 22 251 45 264 51 17 8 22 16 18 33 -3 12 -13 69 -23 127
-10 58 -23 108 -28 112 -15 11 -9 12 -344 -47z"/>
<path d="M2020 2103 c-87 -13 -186 -36 -194 -43 -11 -11 24 -236 40 -258 11
-15 21 -14 129 3 64 11 124 25 133 31 15 11 15 21 -1 125 -26 165 -19 156
-107 142z"/>
<path d="M1515 2018 c-60 -11 -114 -23 -119 -28 -12 -12 29 -261 44 -270 6 -4
48 -1 93 7 45 7 102 16 125 20 24 3 46 12 49 20 7 17 -26 230 -39 256 -10 20
-10 20 -153 -5z"/>
<path d="M3925 1988 c-60 -11 -114 -23 -118 -27 -11 -11 33 -254 49 -267 16
-13 242 21 261 40 10 9 8 39 -10 141 -26 153 -12 144 -182 113z"/>
<path d="M1175 1959 c-22 -4 -53 -9 -70 -12 -328 -54 -335 -56 -335 -81 0 -32
39 -248 45 -255 10 -9 449 68 461 82 9 9 7 37 -6 114 -29 170 -26 165 -95 152z"/>
<path d="M3502 1916 c-67 -13 -125 -25 -127 -28 -8 -7 35 -261 45 -272 7 -7
229 26 266 41 18 7 18 3 -7 147 -18 105 -30 138 -49 135 -3 -1 -60 -11 -128
-23z"/>
<path d="M3062 1841 c-56 -9 -107 -22 -113 -28 -11 -11 26 -250 41 -267 10
-10 246 24 267 39 13 10 12 25 -9 141 l-23 129 -30 2 c-16 1 -76 -6 -133 -16z"/>
<path d="M2642 1770 c-57 -11 -109 -24 -116 -29 -18 -15 22 -259 44 -271 18
-10 240 28 257 44 10 9 9 36 -7 131 -11 66 -22 126 -25 133 -6 15 -25 14 -153
-8z"/>
<path d="M2218 1695 c-65 -11 -122 -25 -127 -30 -11 -11 25 -252 39 -268 9
-10 260 29 273 42 6 6 1 59 -13 139 -17 100 -26 131 -39 134 -9 2 -69 -6 -133
-17z"/>
<path d="M4635 1668 c-154 -27 -290 -51 -302 -54 -18 -3 -23 -11 -23 -37 1
-40 35 -235 43 -243 6 -6 65 2 402 60 274 47 255 42 255 71 0 37 -29 207 -40
233 -6 14 -17 22 -32 21 -13 -1 -149 -24 -303 -51z"/>
<path d="M1766 1619 c-55 -10 -103 -22 -108 -27 -4 -4 3 -66 16 -137 l23 -130
55 2 c61 2 209 30 220 41 4 4 -2 66 -15 137 l-22 130 -35 2 c-19 1 -80 -7
-134 -18z"/>
<path d="M3795 1524 c-479 -84 -698 -121 -980 -169 -508 -86 -791 -135 -875
-150 -47 -8 -105 -18 -130 -21 -25 -4 -55 -10 -69 -15 -27 -11 -26 -19 5 -191
14 -78 18 -88 38 -88 21 0 90 11 306 49 63 11 129 22 145 25 17 3 122 21 235
40 113 20 284 49 380 65 96 17 267 46 380 65 113 19 324 55 470 80 447 76 491
84 498 90 6 7 -26 217 -39 254 -6 14 -16 22 -31 21 -13 -1 -162 -26 -333 -55z"/>
<path d="M1360 1550 c-58 -10 -188 -32 -290 -50 -195 -34 -230 -43 -230 -60 0
-31 43 -246 51 -254 7 -8 179 16 384 54 22 4 87 15 145 25 58 9 111 22 117 29
10 9 8 39 -10 141 -19 114 -24 130 -42 132 -11 1 -67 -7 -125 -17z"/>
<path d="M1495 1130 c-22 -4 -53 -10 -70 -13 -80 -14 -292 -50 -388 -66 -59
-9 -112 -22 -117 -27 -10 -10 26 -252 41 -268 9 -10 643 95 657 109 6 6 -28
222 -39 253 -9 23 -19 25 -84 12z"/>
<path d="M7692 2240 c-94 -25 -162 -62 -234 -129 l-58 -53 0 66 c0 58 -3 70
-25 92 l-25 25 -347 -5 c-192 -2 -355 -4 -363 -4 -8 -1 -85 1 -170 4 -114 3
-161 1 -179 -8 -18 -10 -36 -42 -67 -118 l-42 -105 -19 45 c-11 25 -28 69 -38
98 -31 85 -33 87 -216 90 -158 3 -159 3 -184 -22 l-25 -25 0 -471 0 -471 25
-25 c25 -25 26 -25 186 -22 158 3 161 3 181 28 14 17 22 21 25 12 3 -7 18 -19
33 -27 34 -18 70 -8 93 25 15 21 15 21 21 2 4 -10 18 -24 32 -30 33 -15 298
-16 326 -1 14 8 23 8 31 0 8 -8 119 -11 354 -11 l344 0 24 25 c22 21 25 33 25
91 l0 66 58 -53 c73 -68 140 -104 238 -129 138 -36 245 -23 380 45 75 38 84
40 84 23 0 -10 11 -30 25 -43 23 -24 28 -25 174 -25 141 0 151 1 175 23 14 12
29 38 34 57 l8 35 74 0 74 0 8 -35 c5 -19 20 -45 34 -57 25 -23 28 -23 328
-23 359 0 345 -4 355 101 l7 64 37 -72 c20 -40 46 -77 56 -83 11 -5 85 -10
170 -10 144 0 151 1 178 24 26 22 28 31 33 117 3 63 8 87 13 72 12 -32 125
-134 184 -166 64 -34 190 -67 258 -67 68 0 194 33 258 67 63 35 154 118 187
172 14 22 27 41 30 41 3 0 18 -20 33 -45 83 -132 277 -234 443 -235 67 0 192
33 257 67 29 15 87 62 130 105 l77 77 0 -87 c0 -136 16 -146 233 -140 153 4
166 11 176 104 l6 59 57 -76 c44 -60 63 -77 88 -83 63 -12 593 -7 620 7 15 7
31 30 41 57 l17 45 73 0 73 0 9 -37 c17 -73 14 -73 340 -76 181 -1 303 2 323
8 46 16 54 44 54 200 l0 140 126 0 c69 0 134 5 145 10 18 10 19 6 19 -149 0
-141 2 -161 19 -182 l19 -24 311 0 c347 0 335 -2 356 73 l11 37 74 0 74 0 16
-45 c10 -28 25 -49 40 -57 31 -15 569 -18 616 -2 37 12 54 44 54 104 0 25 4
45 8 45 4 0 22 -29 40 -65 47 -95 51 -97 234 -91 180 5 140 5 407 0 190 -4
222 -3 293 15 132 34 235 104 303 207 l38 56 29 -50 c79 -138 282 -252 448
-252 65 0 174 29 250 67 213 104 330 357 275 592 -49 206 -210 362 -420 406
-87 18 -122 18 -208 0 -139 -29 -264 -114 -338 -228 l-38 -58 -25 40 c-62 97
-157 171 -276 212 -58 21 -88 23 -287 27 -182 3 -227 1 -252 -11 -22 -11 -32
-12 -41 -3 -7 7 -65 11 -170 11 -191 0 -192 -1 -200 -103 l-5 -67 -45 79 c-55
97 -60 99 -248 94 -132 -3 -134 -3 -158 -31 -24 -28 -24 -28 -25 -290 -1 -179
-4 -250 -10 -224 -17 72 -129 472 -140 499 -16 40 -58 48 -242 48 -172 0 -220
-11 -236 -52 -5 -13 -37 -128 -72 -256 l-64 -233 -5 245 c-5 239 -6 246 -28
268 l-23 23 -486 3 c-321 2 -497 -1 -518 -8 -18 -6 -37 -21 -44 -33 -7 -15
-12 -107 -14 -276 l-2 -254 -70 259 c-47 175 -77 267 -92 284 l-21 25 -202 0
-202 0 -21 -25 c-16 -18 -51 -134 -121 -393 -55 -202 -102 -367 -106 -367 -3
0 -28 29 -54 65 l-47 65 33 42 c77 97 104 175 95 280 -10 114 -64 206 -161
273 -84 57 -136 65 -422 65 -317 0 -304 6 -304 -142 l0 -100 -40 51 c-45 57
-123 122 -183 152 -53 28 -180 59 -236 59 -170 -1 -364 -102 -448 -235 -15
-25 -30 -45 -33 -45 -3 0 -18 20 -33 45 -35 55 -122 133 -187 169 -61 33 -187
66 -255 66 -68 0 -194 -33 -258 -67 -59 -32 -172 -134 -184 -166 -5 -15 -10 9
-13 70 -8 136 -9 137 -204 141 -150 3 -154 3 -181 -21 -23 -19 -29 -34 -33
-81 l-5 -58 -39 72 c-27 48 -49 75 -67 81 -14 6 -91 9 -174 7 -203 -4 -187 22
-188 -312 l0 -261 -69 250 c-39 138 -75 262 -81 277 -6 15 -24 31 -41 37 -40
14 -356 14 -396 0 -39 -13 -45 -28 -121 -314 -101 -374 -89 -339 -114 -322
-95 61 -176 101 -205 101 -26 0 -41 -10 -80 -52 -46 -50 -50 -52 -101 -52 -49
0 -57 3 -92 39 -35 35 -39 44 -39 91 0 47 4 56 39 91 35 36 43 39 92 39 50 0
55 -2 98 -48 25 -27 54 -52 64 -55 24 -9 77 15 199 87 134 79 142 106 62 212
-54 71 -117 121 -199 159 -126 59 -233 69 -363 35z m272 -70 c86 -27 180 -92
235 -164 53 -68 57 -61 -87 -142 l-103 -57 -16 23 c-56 80 -155 110 -241 75
-163 -69 -163 -301 0 -370 77 -32 162 -12 224 53 l42 43 98 -57 c140 -80 136
-72 83 -141 -141 -183 -406 -236 -604 -123 -61 35 -154 130 -183 185 -73 144
-69 331 11 467 31 53 116 135 177 171 100 58 246 73 364 37z m2541 5 c182 -48
315 -198 346 -391 22 -136 -30 -292 -131 -394 -148 -149 -368 -182 -562 -84
-114 58 -214 203 -238 343 -38 228 115 464 341 525 71 19 171 20 244 1z m997
-14 c75 -29 163 -96 212 -161 47 -62 55 -51 -97 -137 l-97 -55 -20 23 c-10 13
-19 27 -20 31 0 15 -107 58 -142 58 -46 0 -104 -22 -136 -53 -71 -66 -84 -192
-26 -264 38 -48 106 -83 159 -83 22 0 63 11 90 24 l50 24 -103 1 -103 1 3 103
3 102 262 3 263 2 6 -25 c9 -35 -4 -126 -27 -193 -65 -187 -242 -312 -444
-312 -182 0 -339 100 -422 268 -38 76 -38 77 -38 202 0 125 0 127 37 201 61
122 159 208 286 250 79 26 224 21 304 -10z m6260 0 c181 -70 298 -242 298
-440 0 -269 -202 -471 -470 -471 -285 0 -509 264 -462 542 32 185 149 319 331
380 76 25 222 20 303 -11z m-11652 -163 c36 -92 67 -168 70 -168 3 0 35 76 71
168 l67 167 141 3 141 3 0 -451 0 -450 -140 0 -140 0 0 147 c0 81 -4 143 -8
138 -5 -6 -35 -72 -67 -148 -46 -109 -61 -135 -70 -125 -6 7 -36 70 -66 140
-30 69 -58 124 -62 121 -4 -3 -7 -64 -6 -136 l1 -132 -138 0 -139 0 -3 435
c-1 239 0 441 3 448 3 9 38 12 142 10 l137 -3 66 -167z m1220 52 l0 -120 -185
0 -185 0 0 -55 0 -54 158 -3 157 -3 3 -97 3 -97 -158 -3 -158 -3 -3 -52 -3
-53 185 0 186 0 0 -120 0 -120 -325 0 -325 0 0 443 c0 244 3 447 7 450 3 4
150 7 325 7 l318 0 0 -120z m1519 53 c42 -145 221 -809 221 -821 0 -9 -34 -12
-134 -12 l-135 0 -12 55 -12 55 -128 0 -128 0 -12 -55 -12 -55 -134 0 c-98 0
-133 3 -133 12 0 10 221 834 235 876 3 9 49 12 184 12 l180 0 20 -67z m631
-117 l95 -179 3 181 2 182 140 0 140 0 0 -450 0 -450 -139 0 -139 0 -93 175
c-52 96 -97 175 -101 175 -5 0 -8 -79 -8 -175 l0 -175 -140 0 -140 0 0 443 c0
244 3 447 7 451 4 3 68 5 142 4 l135 -3 96 -179z m2971 156 c61 -30 116 -86
145 -147 18 -39 24 -67 24 -126 0 -94 -29 -158 -101 -223 -27 -24 -49 -47 -49
-50 0 -14 213 -296 219 -291 3 4 58 199 122 433 l116 427 183 0 183 0 118
-435 c66 -239 119 -441 119 -447 0 -10 -33 -13 -134 -13 l-135 0 -12 55 -12
55 -128 0 -128 0 -12 -55 -12 -55 -296 0 -297 0 -87 123 c-47 67 -98 136 -111
152 l-25 30 -1 -153 0 -153 -137 3 -138 3 -3 448 -2 448 272 -3 c260 -3 275
-4 319 -26z m1759 -92 l0 -120 -185 0 -185 0 0 -55 0 -55 160 0 160 0 0 -100
0 -99 -157 -3 -158 -3 -3 -173 -2 -173 -138 3 -137 3 -3 435 c-1 239 0 441 3
448 3 9 78 12 325 12 l320 0 0 -120z m330 -330 l0 -450 -140 0 -140 0 0 450 0
450 140 0 140 0 0 -450z m752 15 c64 -236 117 -438 118 -447 0 -16 -13 -18
-133 -18 l-134 0 -12 55 -12 55 -128 0 -128 0 -12 -55 -12 -55 -135 0 c-86 0
-134 4 -134 10 0 9 179 673 226 838 l15 52 181 -2 182 -3 118 -430z m438 428
c0 -5 43 -87 95 -183 l95 -175 0 183 0 182 140 0 140 0 0 -450 0 -450 -138 0
-139 0 -94 177 -94 178 -5 -175 -5 -175 -138 0 -137 0 0 443 c0 243 0 444 0
447 0 8 280 6 280 -2z m1035 -7 c131 -35 234 -121 294 -246 35 -73 36 -78 36
-190 0 -112 -1 -117 -36 -190 -58 -120 -146 -199 -268 -240 -53 -18 -85 -20
-281 -20 l-220 0 0 450 0 450 213 0 c145 0 228 -4 262 -14z m-4965 -291 c0
-22 -4 -25 -35 -25 -42 0 -44 9 -7 32 37 22 42 22 42 -7z m-453 -21 c-3 -3
-12 -4 -19 -1 -8 3 -5 6 6 6 11 1 17 -2 13 -5z"/>
<path d="M10305 1901 c-77 -36 -115 -95 -115 -181 0 -60 13 -96 48 -134 77
-82 203 -86 285 -8 43 41 57 75 57 142 0 67 -14 101 -57 142 -60 57 -145 73
-218 39z m156 -72 c107 -76 57 -239 -74 -239 -60 0 -108 33 -127 88 -13 37
-13 47 0 84 28 81 133 116 201 67z"/>
<path d="M10330 1770 c-45 -45 -11 -120 53 -120 20 0 41 8 50 18 23 25 22 85
-1 105 -25 23 -78 21 -102 -3z"/>
<path d="M17520 1905 c-79 -36 -123 -102 -123 -185 0 -64 18 -105 67 -147 70
-62 165 -69 240 -16 116 82 116 244 -1 327 -52 36 -129 45 -183 21z m148 -72
c99 -61 71 -217 -43 -243 -51 -11 -98 5 -134 46 -26 29 -31 43 -31 84 0 41 5
55 31 85 47 53 119 65 177 28z"/>
<path d="M17545 1765 c-14 -13 -25 -33 -25 -45 0 -29 44 -70 75 -70 34 0 65
33 65 70 0 64 -70 91 -115 45z"/>
<path d="M8616 1755 c-14 -57 -26 -111 -26 -120 0 -12 13 -15 60 -15 33 0 60
3 60 8 1 20 -55 232 -61 232 -4 0 -18 -47 -33 -105z"/>
<path d="M12140 1870 l0 -60 83 0 c93 0 117 13 117 63 0 46 -23 57 -116 57
l-84 0 0 -60z"/>
<path d="M13076 1755 c-14 -57 -26 -111 -26 -120 0 -12 13 -15 60 -15 33 0 60
3 60 8 1 20 -55 232 -61 232 -4 0 -18 -47 -33 -105z"/>
<path d="M14957 1748 c-15 -62 -27 -116 -27 -120 0 -5 27 -8 60 -8 47 0 60 3
60 15 0 27 -52 225 -59 225 -4 0 -19 -51 -34 -112z"/>
<path d="M16570 1720 l0 -210 44 0 c59 0 87 11 137 57 51 46 69 86 69 153 0
67 -18 107 -69 153 -50 46 -78 57 -137 57 l-44 0 0 -210z m146 98 c72 -79 51
-182 -48 -234 l-28 -15 0 151 0 151 28 -15 c15 -8 37 -25 48 -38z"/>
<path d="M7770 1770 c-47 -47 -11 -120 59 -120 34 0 44 5 67 35 l26 35 -26 35
c-23 30 -33 35 -67 35 -26 0 -46 -7 -59 -20z"/>
<path d="M8156 1750 l-48 -27 43 -26 c24 -14 45 -25 47 -23 2 2 9 27 17 55 16
60 12 61 -59 21z"/>
</g>
</svg>
